<?xml version="1.0" encoding="UTF-8" standalone="no"?>
<!-- Creator: CorelDRAW X6 -->

<svg
   xmlns:dc="http://purl.org/dc/elements/1.1/"
   xmlns:cc="http://creativecommons.org/ns#"
   xmlns:rdf="http://www.w3.org/1999/02/22-rdf-syntax-ns#"
   xmlns:svg="http://www.w3.org/2000/svg"
   xmlns="http://www.w3.org/2000/svg"
   xmlns:sodipodi="http://sodipodi.sourceforge.net/DTD/sodipodi-0.dtd"
   xmlns:inkscape="http://www.inkscape.org/namespaces/inkscape"
   xml:space="preserve"
   width="679.71881"
   height="260.59424"
   version="1.1"
   style="fill-rule:evenodd"
   viewBox="0 0 19183.175 7354.5485"
   id="svg2"
   inkscape:version="0.48.3.1 r9886"
   sodipodi:docname="TRwebLogo.svg"><metadata
   id="metadata31"><rdf:RDF><cc:Work
       rdf:about=""><dc:format>image/svg+xml</dc:format><dc:type
         rdf:resource="http://purl.org/dc/dcmitype/StillImage" /><dc:title></dc:title></cc:Work></rdf:RDF></metadata><sodipodi:namedview
   pagecolor="#ffffff"
   bordercolor="#666666"
   borderopacity="1"
   objecttolerance="10"
   gridtolerance="10"
   guidetolerance="10"
   inkscape:pageopacity="0"
   inkscape:pageshadow="2"
   inkscape:window-width="1301"
   inkscape:window-height="744"
   id="namedview29"
   showgrid="false"
   inkscape:zoom="0.67425131"
   inkscape:cx="202.9715"
   inkscape:cy="-97.495781"
   inkscape:window-x="65"
   inkscape:window-y="24"
   inkscape:window-maximized="1"
   inkscape:current-layer="svg2"
   fit-margin-top="0"
   fit-margin-left="0"
   fit-margin-right="0"
   fit-margin-bottom="0" />
 <defs
   id="defs4">
  <style
   type="text/css"
   id="style6">
   
    .fil1 {fill:black}
    .fil0 {fill:red}
    .fil4 {fill:#FFFF99}
    .fil2 {fill:#1E2022}
    .fil3 {fill:#FFFF99;fill-rule:nonzero}
   
  </style>
 
  
  
  
  
  
  
  
  
  
 </defs>
 <path
   style="fill:#1e2022;fill-opacity:1"
   inkscape:connector-curvature="0"
   id="path12"
   d="m 8403.1835,6699.0567 c 100,299.0006 311,570.0008 640.9989,637.0007 44,10 81,16 114.999,17 422.998,19 691.997,-146.0003 904.9966,-357.0001 80.999,-80.0004 154.999,-175.0003 213,-280.0007 154.999,-289.0006 300.999,-730.0011 83.999,-1062.0017 866.998,-374.0001 1434.998,-182.0003 1685.998,53.9999 235,220.0007 303,485.001 205,849.0015 -156,578.0009 -804,785.0011 -1181,504.0009 -92.999,-61.9999 -222.999,-187.0002 -245.999,-325.0006 -49.999,-305.0002 146,-469.0005 285.999,-446.0005 237,33 342,271.0002 105,472.0005 -57,57.0004 346,209.0007 542,-107.9999 147,-237.0007 156,-577.0013 -203,-737.0016 -429,-199.0003 -965.998,159.0003 -900.998,698.0016 29,210.0003 186.999,445.0005 369.998,565.0004 581,368.0006 1384,-15 1572,-710.0007 146,-519.0009 -65,-969.0018 -537,-1210.0016 -487,-238.0007 -1064,-111.0004 -1759.997,265.9997 7,-17.9999 -160,-178.9998 -350.9996,-210.9998 -241,-39.9999 -518.999,63 -558.998,398.0001 -35,362.0006 269.998,189.0003 192.999,79.0004 -10,-14 -32,-32 -57,-28 8,-25.0004 19,-51.0004 34,-79.0003 46,-85 121.999,-127.0004 206,-138.0004 117.999,-15 248.9986,37.0004 326.9986,124.0004 -516.9986,275.0006 -1051.9956,614.0012 -1500.9945,849.0015 -34,19 -68,39.9999 -103,58.9999 -10,-89.9999 2,-154.0003 15,-220.0002 44,-210.0003 194,-339.0006 305,-308.0007 29,8 54.9999,27 73.9999,55.0004 l -2,1 c -51.9999,24 -80.9999,87 -64.9999,141.9999 26,90.0004 100.9999,81.0004 162.9989,44.0004 160.999,-97.0003 148.999,-359.0006 -38.999,-433.0009 -228.9999,-90 -509.9999,147.0003 -546.9999,421.0009 -12,88 -23,202.0003 -7,357.0006 -896,619.0008 -1206,573.0004 -1524,482.0005 -144,-58 -256,-129.9999 -303,-322.0002 -75,-304.0006 161,-583.0013 399,-566.0013 57,1 145,20 190,75.0004 99,123.0003 52,252.0002 -16,283.0002 -114,53.0004 -220,-23 -164,-181.0003 11,-41.9999 -206,6 -214,205.0007 -6,147.9999 75,304.0002 274,272.0002 240,-33.9999 389,-349.0005 226,-573.0008 -65,-86.0004 -194,-146.0003 -305,-147.0003 -350,2 -683,363.0006 -522,768.0011 292,573.0008 936,440.0005 1977,-233.0002 z m 860.9969,191.0002 c -105.999,-3 -141.998,-164.0003 -43.999,-318.0006 150.999,-233.0002 566.998,-217.0002 645.997,165.0003 28,147.0003 -60,387.0006 -265.999,511.0009 247.999,-98.0003 470.9986,-275.0002 607.9976,-522.0009 151,-247.0002 181,-712.0011 -30,-960.0014 -53.999,18 -105.999,50 -160.999,75 -496.9986,242.0002 -1009.9956,541.0008 -1520.9945,817.0015 41,231.0002 169,488.0005 441.9999,600.0008 132.999,47 308.997,37 433.997,-32 125.999,-67.0003 228.999,-197.0002 211.999,-388.0005 -17,-105.0004 -102,-159.0003 -172,-163.0003 -47.999,-7 -98.999,4 -140.999,30 23,16.9999 40,35.9999 48,81.0003 9,45 -13,104.9999 -54,103.9999 z"
   class="fil1" /><path
   style="fill:#1e2022"
   inkscape:connector-curvature="0"
   id="path14"
   d="m 2756.1835,1775.0511 c 10,-14 22,-27 35,-40 46,-41 101,-63 163,-63 51,0 100,15 137,51 81,77 106,111 191,191 38,36 55,83 55,134 0,64 -24,119 -71,162 -46,43 -102,65 -164,65 -53,0 -102,-17 -139,-55 -14,-14 -42,-23 -50,-39 l -326,109 -191,-191 -72,-108 0,272 -453.9999,0 -68.9999,-152 c -11,38 -32,72 -62,100 -46,43 -102,65 -164,65 -53,0 -102,-17 -139,-55 -79,-80 -111,-111 -190,-190 l 0,233 -453.99983,0 -191,-191 0,-910 -79,0 -190.9999,-191.00005 0,-236 995.99973,0 191,191 0,236.00005 -272,0 0,590 c 5,-6 11.0001,-12 17.0001,-17 46,-41 100.9999,-63 162.9999,-63 51,0 100,15 137,51 l 116,149 0,-1138.00005 453.9998,0 0,36 c 16,-8 32,-16 49,-22 56,-22 114,-33 174,-33 66,0 129,13 189,42 47,23 304,271.00005 330,310.00005 l 1,1 c 35,53 51,112 51,176 0,88 -33,167 -85,237 -29,40 -64,77 -101,110 -24,21 -48,41 -74,61 l 88,124 z"
   class="fil2" /><path
   style="fill:#ffff99;fill-rule:nonzero"
   inkscape:connector-curvature="0"
   id="path16"
   d="m 977.18377,894.05105 0,1101.00005 -301,0 0,-1101.00005 -270.9998,0 0,-83 842.99973,0 0,83 -271.99993,0 z M 1265.1838,1895.0511 c 0,-39 16,-73 47.9999,-102 32,-29 69,-43 112,-43 35,0 64,10 85,30 21,20 31,46 31,79 0,42 -15,78 -46,106 -31,29 -69,44 -112,44 -35,0 -64,-11 -84.9999,-32 -21,-22 -33,-48 -33,-81 z m 789.9997,-891 0,394 c 218,-128 327,-245 327,-350 0,-38 -12,-68.00005 -35,-89.00005 -24,-23 -55,-34 -95,-34 -29,0 -57,5 -83,16 -24,10 -62,31 -115,63.00005 z m 314,439 337,472 -280,94 -371,-556 0,543 -300.9998,0 0,-1184.00005 300.9998,0 0,100 c 58,-44 109,-74 153,-91 47,-18 96,-28 146,-28 57,0 109,11 155,34 46,23 82,53 110,93 26,39 39,84.00005 39,134.00005 0,64 -23,128 -70,192 -22,32 -52,65 -90,98 -37,33 -80,67 -129,101 z m 425,452 c 0,-39 16,-73 48,-102 32,-29 69,-43 112,-43 35,0 64,10 85,30 21,20 31,46 31,79 0,42 -15,78 -46,106 -31,29 -69,44 -112,44 -35,0 -64,-11 -85,-32 -21,-22 -33,-48 -33,-81 z"
   class="fil3" /><path
   style="fill:#1e2022"
   inkscape:connector-curvature="0"
   id="path18"
   d="m 18180.175,5889.0551 17,11 c 62,42.0004 135,77.0004 212,77.0004 39,0 75,-8 106,-31 18,-14 31,-29.0004 31,-52.0004 0,-29.9999 -26,-68.9999 -52,-100.9999 -34,-32 -68,-64.0004 -100,-97.0004 l -1,-1 -1,-0.9999 c -13,-13 -25,-27 -37,-42 l -16,-16 c -10,-9 -19,-20 -29,-29 l -1,-1 c -38,-36.0004 -76,-72.0004 -113,-109.0003 l -1,-1 -1,-1 c -4,-5 -8,-9 -13,-14 l 0,406.0005 z m -79,-855.001 c 7,-12 15,-23 24,-34 48,-61.0004 110,-105.0003 181,-135.0003 74,-31 153,-46 234,-46 59,0 117,8 174,24 60,18 120,47 174,78.9999 l 87,50.0004 198,198.0003 -185,196.0003 -55,-34 c -30,-19 -68,-40.9999 -102,-51.9999 -29,-9 -58,-14 -88,-14 -30,0 -63,5 -89,21 -8,6 -18,13.9999 -18,23.9999 0,7 3,16 8,24 63,57 133,118.9999 190,181.9999 12,12.9999 24,26.9999 35,40.9999 56,50.0004 114,103.0004 163,157.0003 80,88.0004 151,199.0003 151,323.0006 0,79.0004 -26,150.0004 -76,211.0003 -51,63.0004 -118,107.0004 -193,137.0003 -83,32 -173,45.0004 -262,45.0004 -74,0 -149,-9.0004 -220,-31.0004 -71,-22 -138,-53.9999 -201,-93.9999 l -53,-34 0,100 -297,61.0003 -198,-198.0007 -180,-300.0002 0,476.0005 -291,0 -198,-198.0003 0,-49.9999 c -4,6 -9,12 -13,18 -53,71.9999 -118,134.0003 -196,179.0003 -76,43.9999 -158,69.0003 -245,69.0003 -95,0 -183,-26.0004 -260,-81.0003 -82,-59 -117,-140.0004 -198,-198.0003 l -4,-3 c -13,36 -32,69.9999 -58,100.9999 -51,63.0004 -118,107.0004 -193,137.0003 -83,32 -173,45.0004 -262,45.0004 -74,0 -149,-9.0004 -220,-31.0004 -71,-22 -138,-53.9999 -201,-93.9999 l -82,-53.0004 -198,-198.0003 191,-190.0002 54,36.9999 c 62,42.0004 135,77.0004 212,77.0004 39,0 75,-8 106,-31 18,-14 31,-29.0004 31,-52.0004 0,-30 -26,-68.9999 -52,-99.9999 -34,-32 -68,-64.0004 -101,-97.0004 l -1,-1 -1,-1 c -12,-12.9999 -25,-26.9999 -36,-41.9999 l -16,-16 c -10,-9 -19,-20 -29,-29 l -1,-1 c -38,-36.0004 -76,-72.0004 -113,-109.0003 l -1,-1 -1,-1 c -75,-81 -140,-181.9999 -140,-295.9998 0,-75.0008 27,-142.0007 73,-201.0007 48,-61.0004 110,-104.0003 181,-135.0003 74,-31 153,-46 234,-46 59,0 117,8 174,24 60,18 120,47 174,78.9999 l 87,50.0004 108,145.9999 c 20,-31 43,-60.9999 69,-87.9999 57,-62 123,-115.0004 197,-154.0003 68,-35 142,-57 219,-57 118,0 221,38 302,113.9999 70,66.0004 139,139.0004 207,207.0007 l -130,-198.0007 425,-137.9999 198,198.0003 187,302.0006 0,-466.0009 290,0 119,198.0003 z m -2190,325.0006 -44,-27 c -30,-19 -68,-40.9999 -102,-51.9999 -29,-9 -58,-14 -88,-14 -30,0 -63,5 -89,21 -8,6 -18,13.9999 -18,23.9999 0,7 3,16 8,24 63,57 133,118.9999 190,181.9999 12,12.9999 24,26.9999 35,40.9999 25,22 50,45.0004 74,68.0004 l 0,-7 c 0,-88.0004 11,-175.0003 34,-260.0002 z m 588,5 c -26,23 -27,68.9999 -27,109.9999 0,42 6,86.9999 13,129.0003 10,57 24,114.9999 40,171.0003 10,36 22,73 34,107.9999 24,-23.9999 24,-68.9999 24,-106.9999 0,-58.0004 -8,-118.0003 -19,-174.0003 -14,-70.0004 -33,-139.0003 -56,-207.0002 -3,-9 -6,-19 -10,-29 z m -2131,-271.0007 c 71,56.0004 105,133.0008 105,223.0007 0,82 -28,154.9999 -80,217.9998 l -1,2 220,96.0004 198,198.0003 -54,78.9999 c -39,58.0004 -84,112.0004 -132,163.0003 l 61,61.0004 c 7,5 13,12 19,18 l 1,1 1,1 c 8,9 16,17 24,26 l 71,75.9999 -362,191.0007 -41,-39.0004 c -31,-29 -61,-57.9999 -90,-87.9999 -47,29 -97,54.9999 -149,73.9999 -69,24 -140,36.0004 -213,36.0004 -80,0 -159,-16.0004 -232,-50.0004 -47,-21.9999 -89,-50.9999 -125,-85.9999 -74,-73.0004 -189,-175.0003 -243,-251.0007 -43,-61.9999 -65,-131.0003 -65,-206.0002 0,-59 13,-115.0004 41,-166.0003 28,-55 70,-102.0004 117,-141.0004 33,-27.9999 68,-52.9999 105,-75.9999 -20,-28 -39,-56.9999 -53,-86.9999 -23,-50 -38,-102.9999 -38,-157.9999 0,-75.0004 25,-142.0007 70,-201.0007 45,-61.0004 105,-105.0003 173,-137.0003 71,-34 147,-51 225,-51 89,0 176,21 247,77 l 198,198.0002 z"
   class="fil2" /><g
   id="_812948136"
   transform="translate(6346.1835,-7408.9489)">
   <path
   style="fill:#ffff99;fill-rule:nonzero"
   inkscape:connector-curvature="0"
   id="path21"
   d="m 7533,12778 c 38,-23 66,-45 81,-66 15,-21 23,-46 23,-77 0,-37 -8,-73 -25,-107 -17,-36 -38,-64 -63,-86 -26,-22 -52,-33 -79,-33 -26,0 -47,9 -64,28 -16,19 -24,42 -24,71 0,22 4,42 13,62 8,21 24,49 48,84 22,34 52,75 90,124 z m 185,584 c -64,-67 -126,-135 -185,-205 -49,-56 -106,-125 -170,-206 -61,44 -92,98 -92,162 0,50 14,99 42,146 27,47 63,85 109,114 45,30 92,45 138,45 29,0 55,-4 79,-12 20,-7 45,-22 78,-44 z m 411,82 -220,116 c -35,-33 -68,-65 -98,-96 l -36,-36 c -65,46 -128,79 -186,101 -59,21 -121,31 -186,31 -72,0 -138,-14 -198,-42 -59,-28 -106,-66 -139,-113 -34,-48 -50,-101 -50,-161 0,-47 11,-90 32,-129 21,-41 53,-80 98,-118 44,-37 102,-76 173,-114 -47,-54 -81,-102 -101,-144 -20,-42 -30,-83 -30,-124 0,-55 18,-107 54,-153 35,-47 83,-85 144,-113 59,-29 123,-43 191,-43 82,0 148,20 198,60 50,40 75,93 75,161 0,62 -20,118 -62,167 -41,49 -109,98 -203,147 19,21 31,36 38,45 l 114,136 c 39,47 94,108 163,183 39,-34 80,-80 125,-136 l 27,-35 94,41 c -49,72 -108,141 -177,207 3,3 6,6 9,9 4,3 7,6 9,9 12,13 19,20 21,22 l 83,82 c 2,1 6,4 12,11 3,4 12,13 27,29 z"
   class="fil3" />
   <path
   style="fill:#ffff99;fill-rule:nonzero"
   inkscape:connector-curvature="0"
   id="path23"
   d="m 9436,12399 -72,77 c -49,-30 -88,-50 -119,-60 -36,-12 -74,-18 -113,-18 -53,0 -98,12 -133,35 -36,25 -53,54 -53,90 0,32 15,64 43,98 25,31 87,90 185,178 94,85 157,145 189,180 87,96 131,186 131,269 0,60 -19,114 -58,161 -39,48 -92,86 -160,113 -68,26 -146,40 -233,40 -72,0 -137,-9 -196,-27 -64,-20 -124,-48 -181,-85 l 75,-75 c 89,60 174,90 256,90 60,0 111,-16 154,-47 42,-32 62,-70 62,-115 0,-56 -38,-122 -113,-197 -4,-5 -28,-29 -72,-72 -16,-16 -32,-30 -46,-44 -14,-14 -24,-24 -31,-30 -55,-52 -92,-88 -111,-107 -79,-85 -119,-166 -119,-242 0,-54 19,-104 56,-152 37,-47 87,-84 150,-111 64,-27 131,-40 203,-40 53,0 103,7 152,21 45,13 97,37 157,71 z m 562,83 c -100,0 -150,68 -150,203 0,37 5,84 14,142 9,53 23,113 42,179 17,61 35,113 53,158 34,78 67,134 100,168 34,36 71,54 112,54 98,0 147,-67 147,-202 0,-56 -7,-119 -20,-190 -15,-74 -34,-146 -58,-216 -32,-99 -68,-173 -107,-222 -39,-49 -83,-73 -132,-74 z m 555,356 c 0,94 -15,186 -43,275 -29,88 -67,166 -117,233 -49,67 -106,120 -172,158 -67,39 -135,58 -206,58 -81,0 -152,-22 -214,-66 -61,-44 -109,-107 -142,-188 -34,-82 -50,-175 -50,-279 0,-105 17,-205 50,-300 32,-93 78,-172 137,-236 54,-59 113,-105 176,-137 62,-32 123,-48 182,-48 123,0 220,47 291,142 71,94 106,224 106,390 z m 825,717 -497,-826 0,813 -133,0 0,-1011 -91,-138 268,-87 499,806 0,-788 132,0 0,1193 -179,37 z m 1126,-1156 -72,77 c -49,-30 -88,-50 -119,-60 -36,-12 -74,-18 -113,-18 -53,0 -98,12 -133,35 -36,25 -53,54 -53,90 0,32 15,64 43,98 25,31 87,90 185,178 94,85 157,145 189,180 87,96 131,186 131,269 0,60 -19,114 -58,161 -39,48 -92,86 -160,113 -68,26 -146,40 -233,40 -72,0 -137,-9 -196,-27 -64,-20 -124,-48 -181,-85 l 75,-75 c 89,60 174,90 256,90 60,0 111,-16 154,-47 41,-32 62,-70 62,-115 0,-56 -38,-122 -113,-197 -4,-5 -28,-29 -72,-72 -16,-16 -32,-30 -46,-44 -14,-14 -24,-24 -31,-30 -55,-52 -92,-88 -111,-107 -79,-85 -119,-166 -119,-242 0,-54 19,-104 56,-152 37,-47 87,-84 150,-111 64,-27 131,-40 203,-40 53,0 103,7 152,21 45,13 97,37 157,71 z"
   class="fil3" />
  </g><path
   style="fill:#1e2022;fill-opacity:1"
   inkscape:connector-curvature="0"
   id="path25"
   d="m 3993.1835,4774.0534 c -152,-234.0002 -91,-623.0012 -39,-872.0024 l 2,-10 c -58,81.0004 -118,160.0008 -180,238.0012 -359,446.0009 -772,879.0019 -1249,1199.0025 -363,243.9998 -780.9998,433.0005 -1224.9997,442.0005 -290,6 -569.00003,-59.0004 -772.99993,-247.0006 -117,-108 -321.9998,-384.0002 -400.9998,-516.0005 C 6.1841671,4802.0538 -21.815833,4570.0531 15.184167,4335.0529 134.18407,3595.0511 691.18377,3099.0511 1396.1837,2915.0511 c 363,-95 753.9998,-98 1058.9998,151 123,101 465,568 512,706 342,-375 644,-794 924,-1215 412,-621 785,-1269 1138,-1925.00005 1,-39 4,-78 20,-113 45,-105 151,-166 252,-207 112,-45 230,-67 350,-69 102,-2 195,37 266,110 l 1,1 247,326 1,1 c 72,76 114,179 71,281 -11,27 -28,51.00005 -48,72.00005 -11,13 -23,24 -35,36 -76,129 -148,262 -215,397 -83,165 -158,333 -230,503 -161,379 -314,762 -452,1150 -98,276 -188,555 -258,839.0003 43,-47.0004 84,-96.0003 124,-144.0003 154,-186 296,-380 434,-578 283,-403 545,-821 797,-1244 303,-510 589,-1029.00005 866,-1553.00005 1,-12 2,-24 4,-37 3,-20 9,-40 17,-59 49,-115 153,-186 265,-231 124,-49.999996 259,-68.999996 392,-71.999996 98,-2 174,55 233,126.999996 98,120 147,203 249,327 63,77 103,175 61,273 -15,36 -40,66 -67,94 l -2,2 c -16,15 -32,31 -49,45 -50,98.00005 -99,197.00005 -149,296.00005 13,-2 26,-2 39,-2 l 23,0 19,5 c 51,14 99,36 140,69 l 1,1 c 28,23 53,50 74,80 7,6 14,12 20,18 37,-16 77,-22 117,-22 82,0 157,31 211,96 l 84.9999,192 c 30,-40 60.999,-78 92.999,-116 118,-140 328.998,-383 522.997,-382 68,0 127.999,30 176.999,75 l 1,1 c 30,28 54.001,61 76.001,96 86.999,49 365.9986,431 375.9976,448 231,-385 450,-777.00005 662,-1171.00005 1,-39 4,-78 19.999,-113 45,-105 151,-166 251.999,-207 112,-45 230,-67 350,-70 102,-2 195,36 266,110 l 1,1 248,326 1,1 c 72,76 114,179 71,281 -11,27 -28,51 -48,72 -11,13.00005 -23,24.00005 -35,36.00005 -76,130 -148,262 -215,397 -83,165 -158,334 -230,504 -161,380 -314,762 -452,1151 -97.999,276 -187.999,555 -257.998,838.9999 42.999,-46.9999 83.999,-95.9999 122.999,-143.9999 153.999,-186 295.999,-381 433.999,-578 283,-404 545,-821 797,-1245 303,-510 589,-1029.00005 866,-1554.00005 1,-12 2,-24 4,-37 3,-20 9,-40 17,-59 49,-115 152,-186 265,-231.999996 124,-49.99999 259,-69.9999902 392,-71.99999024 98,-1.99999996 174,54.99999024 233,126.99998624 98,121 147,203 249,327 63,77 103,175 61,273 -15,36 -40,66 -67,94 l -2,2 c -16,16 -32,31 -49,46 -87,173.00005 -174,346.00005 -260,520.00005 7,8 13,16 19,25 l 107,227 c 12,-27 24,-54 36,-80 6,-28 2,-16 14,-43 1,-4 2,-8 3,-11 l 0,-1 c 5,-16 9,-31 14,-47 l 1,-3 3,-7 24,-56 18,-19 c 36,-38 81,-64 130,-80 49,-17 102,-22 153,-22 78,0 145,38 191,100 l 139,242 c 10,-19 21,-37 31,-56 29,-52 60,-105 83,-159 3,-7 5,-15 8,-23 6,-20 11,-41 17,-61 l 6,-25 59,-86 35,-18 c 30,-15 60,-27 92,-36 34,-10 69,-15 104,-15 71,0 147,11 202,62 l 3,3 3,3 c 36,39 50,86 50,135 65,-42 136,-71 211,-71 99,0 170,45 217,110 l 204,276 c 30,-53 60,-107 89,-161 18,-33 34,-66 49,-100 3,-7 5,-15 8,-23 6,-20 11,-41 17,-62 l 6,-24 60,-88 34,-17 c 30,-15 60,-27 92,-36 34,-10 69,-15 104,-15 71,0 147,11 201,62 l 1,1 5,5 1,1 c 36,39 50,86 49,135 65,-42 136,-71 211,-71 88,0 160,32 203,89 l 224,302 c 45,60 84,127 80,217 -4,78 -30,159 -54,233 -39,114 -84,226 -132,337 l -138,322 c -47,109 -95,222 -128,336 25,12 46,30 63,53 34,48 40,109 17,162 -23,53 -66,90 -118,113 -42,19 -87,28 -133,28 -102,8 -187,-22 -235,-93 l -198,-288 -20,36 c -92,171 -261,465 -480,465 -117,0 -209,-60 -241,-165 -14,8 -28,15 -42,21 -42,18 -86,28 -132,28 -118,0 -207,-48 -260,-127 l -173,-254 -20,36 c -92,171 -261,466 -480,465 -121,0 -217,-65 -245,-178 -38,25 -77,45 -115,56 -46,19 -95,29 -145,29 -122,0 -211,-63 -255,-163 -16,15 -32,30 -49,45 -103,90 -231,169 -372,169 -132,0 -237,-57 -278,-160 l -72,-181 c -81,200 -159,402 -231,606 -85,240.0007 -163,483.0014 -225,730.0021 l -24,94.9999 c 60,129.0003 145,267.0007 194,399.001 20,52.9999 15,106.9999 -7,158.0003 -31,72.0004 -86,127.0003 -154,164.0003 l -1,1 -2,1 c -65,34 -136,51 -210,52 -134,3 -239,-28 -319,-84 -89,-61.9999 -363,-425.0009 -407,-529.0013 -47,-111.0003 -62,-246.0002 -55,-387.0001 4,-73.0004 13,-147.0008 25,-220.0012 -28,37 -56,75.0004 -85,112.0008 -225,293.0002 -733.998,950.0019 -1124.998,958.0019 -118.999,2 -231,-31 -315.999,-116.0004 -67,-66.0003 -292.9986,-359.001 -337.9996,-458.0013 -107,-235.9998 -52,-581.0009 -5,-808.002 l 2,-9 c -58,80.9999 -117.999,160.0007 -179.999,238.0011 -491.997,613.0008 -1046.9959,1319.0024 -1702.9959,1761.003 -363,244.0006 -781,434.0009 -1225,443.0009 -293,6 -575,-59.0004 -780,-252.0007 -116,-108.9999 -316,-379.0005 -395,-510.0009 -122,-205.9998 -150,-438.0005 -113,-673.0007 4,-25 8,-49 13,-73 -233,253.0003 -510,491.001 -745,496.001 -119,2 -231,-32 -316,-117.0004 -82,-81.0004 -232,-286.0006 -303,-394.001 z m -2031,-738.0016 c -24,-59.0004 -15,-123.0008 16,-178.0007 l 5,-8 6,-8 c 45,-60 84,-134 100,-207 -144,-37 -307.9998,-13 -446.9998,23 -409,107 -914.99993,570.0014 -935.99993,1014.002 -2,34.9999 0,70.0003 4,104.0003 114,50.0004 250,62.0004 373.00003,59.0004 424.9999,-8 814.9998,-177.0007 1160.9997,-417.0005 -13,-16 -25,-34 -33,-55 l -249,-327.0015 z M 9576.1794,2332.0511 c -7,1 -15,1 -22,1 -23,0 -46,-2 -68,-7 -13,19 -26,37 -39,56 7,-1 14,-1 21,-1 34,0 65,9 93,24 3,-25 8,-49 16,-73 z m -2739.9959,1982.0018 -2,7 c -6,22.0004 -71,236.0003 -56,254.0002 l 226,291.0007 c 20,52.9999 15,107.0003 -7,158.0003 -31,71.9999 -86,127.0003 -154,164.0007 l -2,1 -2,1 c -65,34 -137,50 -210,52 -283,6 -440,-141.0008 -502,-358.001 -54,98.0003 -88,204.0002 -94,315.001 -2,35 0,70 4,103.9999 114,50 250,61 373,59 352,-7 723,-172.9999 1088,-428.001 l -236,-277.0006 c -24,-59 -15,-122.9999 16,-177.9999 l 5,-8 6,-8 c 44,-59.9999 84,-134.0003 100,-207.0007 -144,-37.0004 -308,-13 -447,24 -35,9.0004 -71,21.0004 -107,34.0004 z m 2134.9989,-834.0018 c -103.999,-44 -182.9989,-128 -226.9989,-249 -6,6 -12,12 -18,17 -83,78 -187,131 -303,129 l -3,0 -4,0 -5,-1 c -86,-9 -156,-52 -202,-118 -38,37 -78,72 -119,104 -104,81 -228,144 -363,143 -108,-1 -206,-29 -257,-103 l -189,-279 c -50,117 -101,234 -150,352 223,1 441,58 626,210 96,79 424,503.001 479,622.0018 263,-262.0011 512,-548.0018 734.9989,-827.0018 z"
   class="fil2" /><path
   style="fill:#ffff99"
   inkscape:connector-curvature="0"
   id="path27"
   d="m 7536.1835,2928.0511 c 62,0 122,-36 170,-75 78,-64 147,-151 206,-235 88,-127 168,-262 241,-399 70,-131 137,-267 191,-406 21,-54 36,-119 16,-177 -15,-43 -40,-65 -82,-65 -134,-1 -303,177 -389,275 -163,186 -292,398 -384,635 -37,95 -83,234 -71,339 8,69 36,108 101,108 z m 1829.9969,-287 c -1,-7 -2,-14 -1,-21 0,-10 2,-21 6,-31 8,-22 22,-39 38.999,-53 16,-14 35,-24 56,-24 24,0 44,12 56,36 11,24 9,50 0,74 -49,126 -145.999,226 -246.999,302 -105.999,80 -226.998,138 -358.997,138 -141.9999,-1 -253.9999,-63 -303.9999,-216 -29,-91 -28,-189 -13,-284 -14,21 -28,42 -43,62 -24,33 -50,70 -78,99 -9,10 -19,26 -28,37 -19,24 -40,48 -62,69 -59,56 -131,95 -211,93 l -1,0 -1,0 c -61,-7 -106,-41 -130,-104 -19,-48 -21,-104 -14,-158 -82,100 -173,199 -270,274 -82,64 -180,116 -283,116 -134,-1 -213,-85 -245,-225 -38,-171 10,-361 71,-518 99,-253 253,-472 434,-661 107,-112 313,-314 472,-313 l 6,0 3,1 c 33,9 66,23 93,45 23,19 43,42 59,69 31,22 55,50 72,86 10,20 17,42 22,64 l 10,-17 c 0,-3 1,-6 2,-9 2,-6 4,-13 7,-19 9,-24 26,-42 47,-52 23,-12 49,-16 75,-16 43,0 82,13 112,49 27,33 35,73 18,114 -4,11 -10,22 -17,30 -9,11 -20,20 -31,29 -79,124 -153,252 -221,384 -65,127 -125,258 -177,392 -30,77 -71,182 -83,265 -2,12 -10,55 10,55 156,1 452,-529 534,-668 93.9999,-191 210.9989,-365 344.9989,-524 83.999,-100 287.998,-337 422.997,-336 34,0 64,17 89,41 28.999,27 52.999,64 71.999,100 68.001,29 122.001,79 136,160 16,94 -20.999,212 -53.999,297 -15,38 -32.001,76 -49.001,112 -20,45 -40,90 -58,137 l -18,47 -6.999,4 c -14,9 -30,19 -45,26 -10,4 -21,8 -32,8 -38,0 -83,-9 -104,-48 -22,-40 -7,-93 8,-132 18,-46 48,-99 71,-143 32,-60 62,-122 87,-186 16,-40 41.999,-115 34.999,-159 -5,-29 -24.999,-35 -49.999,-35 -118,-1 -292.999,201 -365.998,288 -159.999,192 -289.998,408 -382.998,648 -40.9999,106 -100.9999,280 -77.9999,397 18,93 83.9999,119 163.9999,120 83.999,0 160.999,-35 229.998,-85 80.999,-60 146.999,-138 198.999,-228 z m 6460.9946,187 c 26,-21 115,-180 129,-205 72,-130 147,-258 225,-384 82,-131 166,-262 256,-389 63,-89 130,-179 203,-260 71,-79 194,-201 309,-201 92,0 133,56 129,145 -3,61 -28,139 -48,197 -37,111 -82,220 -128,327 l -138,322 c -54,126 -113,267 -147,400 -2,9 -28,118 -7,118 6,0 23,-6 29,-8 15,-5 31,-9 46,-9 12,0 21,5 28,15 8,11 8,24 3,36 -9,22 -31,36 -52,45 -25,12 -52,17 -80,17 -117,0 -174,-72 -186,-183 -17,-148 50,-333 107,-467 29,-68 62,-137 93,-204 46,-101 91,-202 135,-303 20,-46 39,-92 56,-139 8,-23 19,-54 22,-78 2,-18 3,-34 -19,-34 -47,0 -192,192 -218,227 -143,192 -271,401 -391,608 -57,98 -112,198 -166,297 -59,109 -217,397 -366,397 -69,0 -117,-31 -123,-103 -7,-84 43,-211 76,-286 4,-9 8,-18 12,-27 -54,73 -110,144 -182,205 -35,30 -76,60 -119,79 -25,11 -52,17 -80,17 -117,0 -174,-72 -186,-183 -17,-148 50,-333 107,-467 29,-68 62,-137 93,-204 46,-101 91,-202 135,-303 20,-46 39,-92 55,-139 8,-23 19,-54 22,-78 2,-18 3,-34 -19,-34 -47,0 -192,192 -218,227 -143,192 -271,401 -391,608 -57,98 -112,198 -166,297 -59,110 -217,397 -366,397 -69,0 -117,-31 -123,-103 -7,-84 43,-211 76,-286 10,-24 21,-48 32,-72 -28,36 -58,72 -88,106 -66,74 -198,217 -299,240 -33,15 -67,22 -103,22 -91,0 -138,-55 -152,-142 -11,-74 3,-160 25,-240 -77,107 -165,212 -261,296 -77,67 -181,138 -287,137 -124,0 -181,-78 -191,-196 -14,-159 59,-361 121,-504 61,-142 132,-281 206,-417 34,-64 69,-128 102,-192 17,-33 36,-68 50,-102 13,-30 26,-61 37,-92 7,-18 12,-37 18,-55 l 0,-1 0,-1 c 13,-30 36,-51 65,-64 33,-17 71,-23 108,-23 47,0 92,14 119,54 19,28 32,62 18,95 l -1,3 -2,2 c -35,36 -68,82 -95,124 -46,69 -89,142 -130,214 -102,179 -193,365 -274,555 -46,107 -105,252 -118,368 -4,38 -9,109 46,109 64,0 136,-61 178,-103 95,-94 180,-216 253,-327 101,-155 193,-315 281,-478 78,-146 155,-295 220,-447 1,-3 1,-6 2,-9 2,-8 4,-16 8,-24 3,-8 6,-18 8,-26 4,-15 9,-29 14,-44 l 0,-1 14,-32 2,-2 c 21,-22 48,-37 77,-47 35,-12 75,-15 112,-15 37,0 65,18 87,47 22,30 29,64 14,99 l -2,5 -21,37 -7,2 c -34,13 -175,262 -195,297 -119,211 -224,431 -320,655 -26,61 -51,122 -72,185 -12,36 -25,79 -30,117 -3,26 -4,60 27,67 192,-41 510,-491 613,-647 65,-97 127,-197 185,-298 66,-116 132,-231 196,-348 30,-54 64,-114 89,-171 5,-11 8,-24 12,-35 7,-22 13,-45 19,-67 l 1,-3 28,-41 4,-2 c 22,-11 46,-20 70,-27 22,-6 45,-10 68,-10 33,0 87,2 112,26 l 0,0 0,0 c 24,26 15,70 5,101 l -1,2 -1,2 c -145,206 -276,422 -398,643 -131,239 -250,484 -358,734 -6,14 -17,42 -15,57 0,1 1,6 2,7 26,-21 115,-180 129,-205 72,-130 147,-258 225,-384 82,-131 167,-262 256,-389 63,-89 130,-179 203,-260 71,-79 194,-201 309,-201 92,0 133,56 129,145 -3,61 -28,139 -48,197 -37,111 -82,220 -128,327 l -137,321 c -54,126 -113,267 -147,400 -4,17 -22,90 -13,113 1,0 1,0 2,0 24,5 33,0 54,-14 168,-110 298,-315 407,-480 88,-132 176,-263 253,-402 30,-55 61,-110 92,-164 55,-95 110,-191 162,-287 20,-36 38,-72 54,-110 5,-11 8,-24 12,-35 7,-22 13,-45 19,-67 l 1,-3 28,-41 4,-2 c 22,-11 46,-20 70,-27 22,-6 45,-10 68,-10 33,0 87,2 112,26 l 0,0 0,0 c 24,27 15,70 5,101 l -1,2 -2,2 c -145,206 -276,422 -398,643 -131,239 -250,484 -357,734 -6,14 -17,42 -15,57 0,2 1,6 2,7 z m -10836.9915,-1493 c -114,182 -226,364 -339,547 -237,382 -478,763 -727,1137 -158,237 -322,479 -499,702 -349,434.0011 -756,861.002 -1220,1173.0027 -342.9999,230.0002 -738.9998,411.0009 -1154.9997,420.0009 -328.00003,6 -636.99993,-80.9999 -810.99983,-373.001 -105.9999,-179.0003 -128.9998,-380.0005 -95.9999,-586.0004 109.9999,-688.0022 629.9998,-1144.0022 1285.99963,-1315.0022 324,-85 674.9998,-94 942.9998,125 212,174 283,420 268,691 l 0,2 -1,2 c -22,95.0003 -170,145.0007 -252,164.0007 -69,16 -271,49.0004 -305,-37.0004 -9,-22 -3,-46.0004 8,-66.0004 l 1,-2 1,-1 c 142,-192.9999 204,-447.9999 7,-618.9999 -203.9999,-177 -489.9998,-160 -739.9998,-94 -465.99993,122 -1008.99973,632 -1032.99973,1133.0018 -6,126.0003 19,245.0002 85.9999,351.0001 145,229.0007 415.9999,281.0011 671.99993,276.0011 746.9998,-15.0004 1390.9997,-489.0009 1890.9997,-1014.0027 381,-400.0003 719,-866.0003 1024,-1325.0003 420,-633 801,-1298 1160,-1966.00005 0,-3 -1,-6 -1,-8 l 0,-2 0,-2 c 0,-23 1,-60 10,-81 29,-68 117,-111 181,-138 98,-39 200,-58 304,-60 67,-1 124,23 170,70 34,37 68,89 46,142 -6,13 -16,26 -26,36 -11,14 -26,27 -39,39 -82,137 -158,278 -229,421.00005 -84,167 -161,339 -234,511 -162,382 -317,767 -455,1158 -105,295 -202,598 -274,903 -21,88 -185,745.0022 20,741.0022 279,-6 888,-876.0022 1031,-1080.0022 285,-406 549,-827 802,-1252 309,-520 601,-1050 883,-1584.00005 0,-17 1,-35 4,-51 1,-10 4,-19 8,-29 34,-81 115,-130 193,-162 110,-44 230,-60 346,-63 54,-1 98,40 130,79 30,37 63,91 42,140 -8,19 -25,38 -40,53 -20,20 -41,39 -63,57 -196,389 -390,779.00005 -577,1172.00005 -140,296 -276,595 -404,897 -140,331 -311,706 -437,1085 -192,63 -369,145 -523,248.9999 80,-362.9999 240,-718.9999 382,-1052.9999 123,-289 251,-577 381,-863 116,-255 232,-510 350,-764 -7,12 -14,25 -22,37 -309,523 -626,1042 -957,1551 -246,377 -501,754 -776,1110.9999 -181,235.0012 -696,900.0028 -1025,906.0028 -446,9 -337,-627.0017 -280,-900.0028 36,-171.9999 83,-342.9999 134,-511.9999 66,-220 140,-438 218,-654 172,-480 362,-956 559,-1427 z m 1468,2626.0003 c -45,174.0008 -77,347.0015 -88,515.0018 -2,30 -8,145.9999 28,161.9999 3,1 6,2 9,2 3,-1 9,-3 12,-5 12,-5 23,-11 35,-18 17,-18 37,-34 58,-46 22,-11.9999 45,-18.9999 69,-19.9999 23,0 42,12 51,32.9999 8,21 3,42 -5,62 -19,44.9999 -54,77.9999 -97,101.0003 -48,25 -99,36 -152,37 -311,6 -404,-214.0003 -401,-482.0005 135,-145.0007 307,-263.0011 482,-342.0015 z M 10773.177,1296.0511 c -114,182 -226,364 -339,547 -237,382 -477.9986,764 -726.9986,1138 -157.999,237 -321.998,480 -498.997,703 -472.9979,590.0014 -1039.9979,1307.003 -1673.9979,1734.0035 -343,231.0003 -739,412.0006 -1155,421.0006 -328,7 -637,-80 -811,-372.0006 -106,-178.9998 -129,-380.0006 -96,-586.0008 111,-695.0017 612,-1051.0027 1259,-1221.0027 324,-85 675,-95 943,124 212,173.0003 283,420.001 268,691.0021 l -1,5 c -22,94.9999 -170,144.9999 -252,164.9999 -69,16 -271,49.9999 -305,-37 -9,-22 -3,-45.9999 8,-65.9999 l 1,-2 1,-1 c 142,-193.9999 204,-448.001 7,-619.0022 -204,-176.9999 -490,-158.9999 -740,-92.9999 -458,120.0003 -981,532.0022 -1006,1039.0027 -6,126.0003 19,245.0002 86,351.001 145,228.9998 416,280.9998 672,274.9998 1259,-27 2707.9989,-1907.0035 3367.9959,-2903.0035 419.9976,-634 800.9976,-1299 1159.9966,-1968.00005 0,-3 -1,-6 -1,-8 l 0,-2 0,-2 c 0,-22 1,-60 10,-81 29,-68 116.999,-111 180.999,-138 98,-39 200,-58 304,-60 67,-1 124,23 170,70 34,37 68,89 46,141 -6,13 -16,26 -26,36 -11,14 -26,27 -39,39 -82,138 -158,279 -229,422.00005 -84,168 -161,339 -234,511 -161.999,382 -316.998,768 -454.998,1158 -105,296 -202,598 -274,903 -21,88 -185,745.0022 20,741.0022 279,-6 887.998,-878.0022 1030.998,-1082.0022 285,-406 549,-827 802,-1253 309,-520 601,-1051.00005 883,-1585.00005 0,-17 1,-35 4,-51 1,-10 4,-20 8,-29 34,-81 115,-130 193,-162 110,-44 230,-61 346,-63 54,-1 98,40 130,79 30,37 63,91 42,140 -8,19 -25,38 -40,53 -20,20 -41,39 -63,57 -196,389 -390,779.00005 -577,1173.00005 -140,297 -276,596 -404,898 -126,297 -245,597 -353,900 -86,244 -165,490.9999 -229,741.0011 -37,146.0007 -77,313.001 -87,463.0009 -2,30 -8,146.0003 28,162.0007 3,1 6,2 9,2 3,-1 9,-3.0004 12,-5.0004 12,-5 23,-11 35,-18 17,-18 37,-35 58,-46.0004 22,-12 45,-19 69,-20 23,0 42,12 51,33.0004 8,21 3,42 -5,62.0004 -19,45 -54,78 -97,101 -48,24.9999 -99,35.9999 -152,37.9999 -332,7 -415,-245.0007 -400,-536.0004 12,-218.0012 72,-453.0019 135,-662.0022 96,-316 218,-629 347,-934 123,-289 251,-577 381,-863 116,-255 232,-510 350,-765 -7,12 -14,25 -22,37 -309,523 -626,1043 -957,1553 -246,378 -501,754 -776,1112 -180.999,235.0011 -695.998,900.0023 -1024.997,907.0023 -445.9996,9.0004 -336.9996,-627.0012 -279.9996,-900.0023 36,-172 83,-343 134,-512 65.9996,-220 139.9996,-438 217.9986,-654 172,-480 362,-956 559,-1428 z"
   class="fil4" />
</svg>